<?xml version="1.0" standalone="no"?>
<!DOCTYPE svg PUBLIC "-//W3C//DTD SVG 20010904//EN"
 "http://www.w3.org/TR/2001/REC-SVG-20010904/DTD/svg10.dtd">
<svg version="1.0" xmlns="http://www.w3.org/2000/svg"
 width="100.000000pt" height="100.000000pt" viewBox="0 0 100.000000 100.000000"
 preserveAspectRatio="xMidYMid meet">
<metadata>
Created by potrace 1.14, written by Peter Selinger 2001-2017
</metadata>
<g transform="translate(0.000000,100.000000) scale(0.100000,-0.100000)"
fill="#000000" stroke="none">
<path d="M505 845 c-43 -15 -112 -83 -121 -120 -4 -17 -11 -21 -30 -17 -45 8
-93 -8 -129 -44 -19 -19 -35 -44 -35 -55 0 -12 -13 -27 -33 -39 -19 -11 -40
-31 -47 -45 -9 -18 -22 -25 -44 -26 l-31 -2 30 -5 c26 -4 28 -5 10 -12 -15 -7
-16 -9 -4 -9 10 -1 19 -13 23 -32 3 -17 20 -44 37 -60 18 -16 30 -31 28 -32
-2 -1 -13 -7 -24 -13 -49 -27 -23 -74 41 -74 38 0 48 -5 97 -54 46 -46 60 -55
104 -61 62 -8 122 7 163 41 29 25 31 26 64 10 54 -26 99 -18 143 23 13 12 35
21 54 21 19 0 46 10 64 24 17 13 45 26 61 29 26 4 26 4 4 6 -23 1 -25 5 -25
50 0 31 -6 56 -16 67 -11 13 -14 25 -9 39 14 35 11 79 -10 119 -17 34 -17 40
-5 53 22 21 18 46 -10 79 -14 16 -30 35 -36 42 -6 7 -21 12 -32 10 -15 -2 -32
8 -52 31 -57 65 -144 86 -230 56z"/>
</g>
</svg>
